#!OML:ASF E:\acrobat2\Project_11_07_03\Capture day 1\Session 1\Acrobat.ASF
:FULLY-SPECIFIED
:DEGREES
1
root 7.7934 16.1596 42.3348 -152.325 19.4772 -173.053
lowerback 18.6163 3.07836 -6.41911
upperback 11.22 4.96027 -1.34896
thorax 1.41688 2.94804 1.34933
lowerneck 7.58678 -8.419 -8.711
upperneck -5.83595 -11.8715 -2.3505
head -2.80695 -5.31909 1.21606
rclavicle -1.03368e-014 1.55052e-014
rhumerus 102.424 -0.416177 -80.9901
rradius 16.6117
rwrist 16.1404
rhand -11.9788 -38.2165
rfingers 7.12502
rthumb 14.0774 -67.7197
lclavicle -1.03368e-014 1.55052e-014
lhumerus 62.7961 27.2125 24.9459
lradius 33.9177
lwrist 60.9745
lhand -26.2535 0.468536
lfingers 7.12502
lthumb 0.30088 30.4481
rfemur -29.3135 2.27166 29.4065
rtibia 45.2416
rfoot 20.9751 -49.1413
rtoes -68.9562
lfemur -73.0222 14.7977 -19.2346
ltibia 39.1319
lfoot -1.78153 -1.34314
ltoes 54.4749
2
root 7.88428 16.0125 41.366 -148.028 16.8591 -171.592
lowerback 20.6763 0.624943 -4.92581
upperback 11.3525 1.95908 -2.516
thorax 0.788446 1.61787 -0.2601
lowerneck 8.15354 -9.11594 -8.6112
upperneck -6.58853 -12.876 -1.84444
head -3.10769 -5.79013 1.4544
rclavicle 4.45278e-014 -3.4191e-014
rhumerus 104.46 3.39955 -87.3177
rradius 15.4123
rwrist 21.2603
rhand -11.3284 -35.9006
rfingers 7.12502
rthumb 14.7041 -65.3591
lclavicle 4.45278e-014 -3.4191e-014
lhumerus 54.3888 27.1795 13.2305
lradius 40.2777
lwrist 79.0163
lhand -35.5071 -8.82534
lfingers 7.12502
lthumb -8.63415 20.9781
rfemur -27.8173 2.91835 30.5189
rtibia 42.276
rfoot 1.69434 -49.3872
rtoes -60.1325
lfemur -79.7667 14.1634 -19.6993
ltibia 47.7719
lfoot 3.88187 3.50358
ltoes 42.329
3
root 7.95886 15.9321 40.3448 -144.543 15.2974 -170.201
lowerback 23.2 1.10019 -6.36128
upperback 10.6277 2.00691 -2.0924
thorax -1.27756 1.58809 0.875715
lowerneck 8.30502 -9.67792 -8.61288
upperneck -7.16123 -13.636 -1.26899
head -3.26304 -6.15163 1.69366
rclavicle 9.54166e-015 2.14687e-014
rhumerus 102.899 2.462 -88.7672
rradius 15.9013
rwrist 22.4414
rhand -10.3559 -36.4861
rfingers 7.12502
rthumb 15.6409 -65.8738
lclavicle 9.54166e-015 2.14687e-014
lhumerus 61.6808 27.4811 22.1942
lradius 38.2691
lwrist 70.169
lhand -33.0386 -6.25249
lfingers 7.12502
lthumb -6.25151 23.6353
rfemur -23.5417 1.37906 31.002
rtibia 35.123
rfoot 13.6253 -52.2659
rtoes -70.1872
lfemur -83.9615 13.7471 -18.251
ltibia 54.3837
lfoot -1.31972 -3.78687
ltoes 40.5241
4
root 8.01262 15.8635 39.2602 -142.492 14.5756 -168.096
lowerback 26.8779 1.76386 -7.44062
upperback 10.7107 2.4883 -1.98575
thorax -2.97869 1.88997 1.32914
lowerneck 4.09699 -10.1773 -10.4751
upperneck -5.91066 -13.7506 -0.164001
head -1.85758 -6.27602 1.97384
rclavicle 6.36111e-015 -6.36111e-015
rhumerus 102.584 2.21266 -91.9637
rradius 15.6769
rwrist 24.0618
rhand -10.6069 -35.5013
rfingers 7.12502
rthumb 15.3992 -64.9077
lclavicle 6.36111e-015 -6.36111e-015
lhumerus 65.0762 26.8184 22.6693
lradius 36.5021
lwrist 68.3361
lhand -33.2413 -6.95775
lfingers 7.12502
lthumb -6.44716 22.9241
rfemur -16.6397 -4.32 30.6742
rtibia 26.6203
rfoot -2.18467 -39.479
rtoes 4.67637
lfemur -84.7414 14.252 -15.9951
ltibia 57.5084
lfoot -1.98566 -7.71821
ltoes 55.6581
5
root 8.03858 15.9667 38.0908 -136.891 14.1238 -165.121
lowerback 28.4903 2.63886 -8.21835
upperback 10.0512 3.05894 -2.0861
thorax -4.53016 2.14306 1.38361
lowerneck 2.78572 -10.3473 -10.3571
upperneck -5.85149 -13.7936 0.939394
head -1.53394 -6.35952 2.20824
rclavicle 9.54166e-015 -3.37934e-014
rhumerus 102.758 2.39428 -96.1452
rradius 15.5394
rwrist 26.3808
rhand -11.5039 -34.5666
rfingers 7.12502
rthumb 14.535 -64.0374
lclavicle 9.54166e-015 -3.37934e-014
lhumerus 65.8743 26.929 21.6193
lradius 36.8831
lwrist 67.5954
lhand -34.3588 -8.55846
lfingers 7.12502
lthumb -7.52592 21.2877
rfemur -13.6972 -7.01478 29.4629
rtibia 20.7173
rfoot 13.7603 -21.6061
rtoes 50.5554
lfemur -86.0857 15.4203 -12.9794
ltibia 58.3381
lfoot -5.63497 -7.16918
ltoes 53.9071
6
root 8.07136 15.9974 36.87 -127.519 10.1305 -159.306
lowerback 25.1292 2.58042 -4.58803
upperback 9.35666 3.75159 -1.43866
thorax -3.70926 2.35997 -0.0130444
lowerneck 1.76396 -10.0105 -9.94978
upperneck -5.7485 -13.2375 2.27803
head -1.28756 -6.17885 2.50311
rclavicle -2.8625e-014 -2.8625e-014
rhumerus 102.875 -0.0454303 -93.8985
rradius 16.7404
rwrist 20.7486
rhand -8.45263 -48.0861
rfingers 7.12502
rthumb 17.4733 -77.3208
lclavicle -2.8625e-014 -2.8625e-014
lhumerus 64.6665 27.9723 19.598
lradius 39.1465
lwrist 68.4374
lhand -36.1788 -10.486
lfingers 7.12502
lthumb -9.28229 19.2897
rfemur -13.3169 -14.8339 33.1887
rtibia 13.4653
rfoot 13.9223 6.07172
rtoes 50.9703
lfemur -90.787 18.349 -6.40378
ltibia 59.0837
lfoot -8.57366 -6.23038
ltoes 53.7876
7
root 8.07583 16.0434 35.6388 -117.976 6.70353 -154.624
lowerback 20.8469 3.17186 -2.26264
upperback 8.40769 4.80788 -1.20892
thorax -2.5497 2.76844 -1.10275
lowerneck 0.585319 -9.3924 -9.97181
upperneck -5.55636 -12.3078 3.9527
head -0.967599 -5.80666 2.98435
rclavicle 1.59028e-014 2.75814e-014
rhumerus 104.512 1.05449 -100.096
rradius 14.9391
rwrist 26.2408
rhand -13.8411 -36.0465
rfingers 7.12502
rthumb 12.2823 -65.6658
lclavicle 1.59028e-014 2.75814e-014
lhumerus 66.2063 28.2492 20.7619
lradius 39.8302
lwrist 68.4799
lhand -36.8276 -12.5572
lfingers 7.12502
lthumb -9.90833 17.1896
rfemur -17.0264 -23.1901 38.0508
rtibia 12.305
rfoot 52.9025 25.4913
rtoes 16.9381
lfemur -94.914 21.9128 -1.01936
ltibia 59.6515
lfoot -11.5506 6.08755
ltoes 35.3457
8
root 8.04573 16.0955 34.4158 -109.532 3.62908 -150.549
lowerback 17.2748 4.02361 -0.732853
upperback 7.32427 5.9652 -1.13346
thorax -1.75653 3.25806 -1.87707
lowerneck -0.729183 -8.5686 -10.0061
upperneck -5.42066 -11.0916 5.48646
head -0.686806 -5.26487 3.45116
rclavicle -4.13472e-014 3.97569e-015
rhumerus 104.326 1.03653 -101.242
rradius 14.2928
rwrist 28.277
rhand -8.91084 -40.4297
rfingers 7.12502
rthumb 17.0323 -69.703
lclavicle -4.13472e-014 3.97569e-015
lhumerus 66.6765 28.133 21.6847
lradius 39.7928
lwrist 67.6524
lhand -36.381 -13.2452
lfingers 7.12502
lthumb -9.47741 16.5216
rfemur 18.7824 116.272 36.3506
rtibia -22.2805
rfoot -89.4134 -11.8034
rtoes 56.5825
lfemur -97.3293 25.5925 3.5963
ltibia 60.3513
lfoot -3.82579 21.6175
ltoes 33.3811
9
root 8.00901 16.1519 33.2117 -102.314 -0.325144 -146.696
lowerback 14.4961 4.89124 1.29061
upperback 6.22849 7.22213 -0.839726
thorax -1.2295 3.83982 -2.68155
lowerneck -2.52883 -7.83971 -9.47544
upperneck -5.40018 -9.94753 6.58268
head -0.423017 -4.72111 3.67138
rclavicle -9.54166e-015 -5.56597e-015
rhumerus 102.341 0.845969 -98.6001
rradius 15.9421
rwrist 25.4361
rhand -11.5237 -40.2688
rfingers 7.12502
rthumb 14.5159 -69.7409
lclavicle -9.54166e-015 -5.56597e-015
lhumerus 64.7681 26.7526 19.5573
lradius 39.3927
lwrist 65.0225
lhand -36.5119 -12.8168
lfingers 7.12502
lthumb -9.6037 16.9443
rfemur -17.181 -25.0667 38.3659
rtibia 16.8853
rfoot -118.508 -149.922
rtoes -14.8459
lfemur -97.3903 29.4793 9.17075
ltibia 59.5876
lfoot 14.7649 33.0772
ltoes 46.5586
10
root 7.99058 16.2438 32.0183 -96.3153 -3.91062 -144.382
lowerback 13.0243 5.39105 1.94407
upperback 5.57911 7.82565 -1.55866
thorax -0.904826 4.1141 -3.73391
lowerneck -5.13758 -6.17821 -7.58072
upperneck -4.98993 -7.59492 7.82293
head -0.0538331 -3.58455 3.71637
rclavicle 9.85972e-014 2.38542e-015
rhumerus 100.667 -0.317705 -95.2598
rradius 18.6834
rwrist 18.6437
rhand -14.3372 -41.036
rfingers 7.12502
rthumb 11.8039 -70.6833
lclavicle 9.85972e-014 2.38542e-015
lhumerus 64.5016 26.2597 19.7113
lradius 38.9947
lwrist 60.5679
lhand -36.3149 -13.2694
lfingers 7.12502
lthumb -9.41369 16.5004
rfemur -14.1996 -21.3048 35.1591
rtibia 17.0329
rfoot -121.756 -157.79
rtoes -14.7483
lfemur -95.23 32.0718 14.3911
ltibia 56.5969
lfoot 17.7927 36.7816
ltoes 40.36
11
root 7.99173 16.3629 30.843 -90.683 -9.54547 -142.913
lowerback 11.6617 6.09133 4.25402
upperback 4.18631 8.90856 -1.04178
thorax -1.28215 4.60862 -4.50238
lowerneck -7.21893 -5.39284 -7.15033
upperneck -4.94924 -6.39114 8.87195
head 0.253433 -2.93484 3.98952
rclavicle 1.01778e-013 -7.15625e-015
rhumerus 98.1495 -0.453934 -94.0573
rradius 19.7773
rwrist 16.868
rhand -14.622 -42.3438
rfingers 7.12502
rthumb 11.5293 -72.0067
lclavicle 1.01778e-013 -7.15625e-015
lhumerus 68.6988 26.0577 28.7677
lradius 33.0488
lwrist 40.4684
lhand -28.4474 -11.757
lfingers 7.12502
lthumb -1.81798 18.215
rfemur -11.8896 -16.8361 34.5424
rtibia 19.3185
rfoot -139.791 -155.905
rtoes -30.5796
lfemur -91.6386 34.7221 22.0381
ltibia 51.0206
lfoot 25.4369 37.6515
ltoes 32.9269
12
root 8.0141 16.5136 29.6893 -85.2938 -17.3159 -142.553
lowerback 10.3659 6.6027 8.10199
upperback 3.02926 10.0639 0.366366
thorax -1.27287 5.1987 -5.1159
lowerneck -8.70469 -4.42195 -6.30113
upperneck -5.44964 -4.9766 9.43938
head 0.223409 -2.18039 4.06348
rclavicle 3.02153e-014 1.43125e-014
rhumerus 95.4304 -0.368372 -93.3426
rradius 21.3524
rwrist 18.8053
rhand -13.8576 -44.1149
rfingers 7.12502
rthumb 12.2664 -73.7351
lclavicle 3.02153e-014 1.43125e-014
lhumerus 78.9528 28.2701 49.4232
lradius 24.0295
lwrist 9.47135
lhand -16.5706 -19.148
lfingers 7.12502
lthumb 9.64968 10.611
rfemur -9.65179 -10.3444 36.3076
rtibia 24.8358
rfoot -144.833 -153.581
rtoes -25.855
lfemur -86.0665 37.2304 32.5723
ltibia 43.3777
lfoot 34.9475 36.5257
ltoes 24.788
13
root 8.05216 16.7434 28.5159 -79.4315 -24.6877 -144.165
lowerback 9.67819 7.11187 11.0811
upperback 1.87905 11.2469 1.79154
thorax -1.68686 5.78245 -5.27932
lowerneck -9.98653 -3.38104 -5.8962
upperneck -6.2806 -3.4014 9.96006
head 0.0459673 -1.32723 4.23089
rclavicle 4.77083e-015 -1.19271e-014
rhumerus 93.6591 -2.34418 -87.2603
rradius 22.0083
rwrist 11.9334
rhand -20.7338 -37.2284
rfingers 7.12502
rthumb 5.63137 -67.1336
lclavicle 4.77083e-015 -1.19271e-014
lhumerus 78.5759 25.516 50.6637
lradius 26.1943
lwrist 13.5535
lhand -22.3681 -16.5025
lfingers 7.12502
lthumb 4.0533 13.4387
rfemur -7.57618 -5.21091 38.4755
rtibia 30.9911
rfoot -156.03 -150.565
rtoes -42.7092
lfemur -77.5013 37.5367 45.6894
ltibia 32.3674
lfoot 44.49 35.8254
ltoes 30.7784
14
root 8.13226 16.9516 27.3149 -74.3769 -26.6097 -146.718
lowerback 10.1639 7.2841 9.12559
upperback 1.18851 11.2793 1.62079
thorax -3.00325 5.67736 -4.60764
lowerneck -11.4705 -1.57039 -5.40382
upperneck -7.00818 -0.69663 11.3991
head -0.118131 0.13019 4.31558
rclavicle 3.18055e-014 -4.6118e-014
rhumerus 92.3975 -3.01413 -90.4123
rradius 23.665
rwrist 19.9979
rhand -16.2198 -37.4982
rfingers 7.12502
rthumb 9.98813 -67.2412
lclavicle 3.18055e-014 -4.6118e-014
lhumerus 79.137 24.0183 53.717
lradius 27.9531
lwrist 11.0566
lhand -28.7774 -19.8726
lfingers 7.12502
lthumb -2.13674 10.0965
rfemur -3.79571 -0.845092 35.7827
rtibia 36.2664
rfoot -167.197 -150.392
rtoes -57.2648
lfemur -71.9742 35.3417 47.0268
ltibia 26.1587
lfoot 48.0119 38.787
ltoes 35.1557
15
root 8.2305 17.0867 26.0635 -66.9442 -16.5224 -146.215
lowerback 7.3035 7.53023 -5.38309
upperback 0.134022 9.39337 -1.87687
thorax -4.4657 4.67421 -0.0567185
lowerneck -10.1024 2.35827 -4.03796
upperneck -11.6501 4.89572 7.94324
head -2.35854 2.97824 3.36626
rclavicle 8.11041e-014 1.59028e-015
rhumerus 91.7819 -2.35492 -88.9863
rradius 25.0808
rwrist 12.4518
rhand -25.3486 -39.8421
rfingers 7.12502
rthumb 1.17484 -69.8186
lclavicle 8.11041e-014 1.59028e-015
lhumerus 78.5777 23.89 53.0072
lradius 29.1629
lwrist 12.1499
lhand -30.2815 -23.194
lfingers 7.12502
lthumb -3.58931 6.75553
rfemur 0.330225 0.346301 18.66
rtibia 30.7544
rfoot -162.541 -149.34
rtoes -30.4464
lfemur -65.3358 29.1428 41.7345
ltibia 14.6451
lfoot 50.8628 52.0528
ltoes 8.55033
